<svg xmlns="http://www.w3.org/2000/svg" viewBox="0 0 33.92 33.92"><defs><style>.cls-1{fill:#4267b2;}.cls-2{fill:#fff;}</style></defs><title>facebook</title><g id="レイヤー_2" data-name="レイヤー 2"><g id="レイヤー_1-2" data-name="レイヤー 1"><path class="cls-1" d="M32.05,0H1.86A1.87,1.87,0,0,0,0,1.87V32.06a1.87,1.87,0,0,0,1.87,1.86H18.12V20.8H13.71V15.67h4.41V11.89c0-4.38,2.68-6.77,6.58-6.77a34.72,34.72,0,0,1,3.95.21V9.91H26c-2.13,0-2.54,1-2.54,2.49v3.27h5.07l-.67,5.13H23.41V33.92h8.64a1.87,1.87,0,0,0,1.87-1.87V1.86A1.87,1.87,0,0,0,32.05,0Z"/><path id="f" class="cls-2" d="M23.41,33.92V20.8h4.41l.67-5.13H23.41V12.4c0-1.48.41-2.49,2.54-2.49h2.69V5.33a34.72,34.72,0,0,0-3.95-.21c-3.91,0-6.58,2.38-6.58,6.77v3.78H13.7V20.8h4.41V33.92Z"/></g></g></svg>