<svg xmlns="http://www.w3.org/2000/svg" viewBox="0 0 484.76 227.79"><defs><style>.cls-1{fill:#242424;}</style></defs><title>io-logo</title><g id="レイヤー_2" data-name="レイヤー 2"><g id="レイヤー_1-2" data-name="レイヤー 1"><path class="cls-1" d="M95,223.49c2-14.22,4.09-28.48,6.07-42.25q8.22-57,16.45-113.94c2.92-20.17,5.87-40.35,9-60.49.22-1.44.82-3.75,2.81-3.82,16.45-.24,32.9-.17,50.22-.17-.74,5.55-1.35,10.51-2.06,15.45q-8,55-15.94,110c-1,7.16,3.72,11.67,10.38,9.13a70.24,70.24,0,0,0,16.43-8.75c5.61-4.12,7.85-10.18,8.77-17.5C204.34,53.84,253.81,6,310.87.51c44.77-4.31,83.2,18.83,99,60.82,6.31,16.81,6.16,34.8,3.08,52.4-5.78,33-20,61.73-45.66,83.8-31,26.71-67,36.5-106.87,26.31-34.87-8.9-54.77-33.08-62.34-67.69-3.29-15.05-6.74-17.58-21.61-13.88-12.78,3.19-18.41,9.77-20.37,23.52-2.54,17.83-5.23,35.63-7.73,53.47-.38,2.67-.87,4.37-4.17,4.34-15.47-.13-30.94-.07-46.41-.1Zm201.07-49.11c5.46-1.1,11.18-1.5,16.33-3.42,29.48-11,44.57-33.36,48.12-63.73,3.77-32.26-24-58-55.87-52.58-38,6.49-63.45,46.72-53.13,84C257.56,160.45,274.35,173.69,296.09,174.38Z"/><path class="cls-1" d="M9.34,205.63a8.64,8.64,0,0,1-9.18-6.72,11.29,11.29,0,0,1,2.19-8.57c2.81-3.27,6.85-2.55,10.81-.87a11.85,11.85,0,0,0,7.43.77c21.57-6.7,43-13.75,64.58-20.48,2.18-.68,4.82.11,7.25.21-1.94,1.33-3.7,3.2-5.84,3.9Q54.87,184.27,23,194.26a10.42,10.42,0,0,0-7,6.27A8.49,8.49,0,0,1,9.34,205.63Z"/><path class="cls-1" d="M484.76,41.84c-.1,6.13-5.84,9.56-11.61,6.31-3.33-1.89-5.93-1.46-9-.28-13.17,5-26.38,9.88-39.58,14.8a11.5,11.5,0,0,1-3.37,1.08,9.87,9.87,0,0,1-3.1-1c.51-.93.82-2.13,1.59-2.71a14.4,14.4,0,0,1,3.71-1.62c13.51-5.07,27-10,40.49-15.29a9.76,9.76,0,0,0,4.93-4.39c2.27-4.71,5.33-7,9.71-6.19C482.25,33.24,484.84,37.08,484.76,41.84Z"/></g></g></svg>