<svg xmlns="http://www.w3.org/2000/svg" viewBox="0 0 41.74 33.92"><defs><style>.cls-1{fill:#55acee;}</style></defs><title>twitter</title><g id="レイヤー_2" data-name="レイヤー 2"><g id="レイヤー_1-2" data-name="レイヤー 1"><path class="cls-1" d="M41.74,4a16.9,16.9,0,0,1-4.92,1.34A8.57,8.57,0,0,0,40.59.63,17.13,17.13,0,0,1,35.15,2.7,8.57,8.57,0,0,0,20.33,8.56a8.48,8.48,0,0,0,.23,2A24.31,24.31,0,0,1,2.91,1.57a8.46,8.46,0,0,0-1.16,4.3A8.58,8.58,0,0,0,5.55,13a8.45,8.45,0,0,1-3.87-1.07V12a8.55,8.55,0,0,0,6.87,8.39,8.44,8.44,0,0,1-2.26.3,8.53,8.53,0,0,1-1.61-.15,8.58,8.58,0,0,0,8,6A17.17,17.17,0,0,1,2,30.19a17.19,17.19,0,0,1-2-.12,24.24,24.24,0,0,0,13.13,3.85c15.75,0,24.36-13,24.36-24.36,0-.38,0-.75,0-1.11A17.63,17.63,0,0,0,41.74,4Z"/></g></g></svg>