<svg xmlns="http://www.w3.org/2000/svg" viewBox="0 0 33.92 33.92"><g data-name="レイヤー 2"><g data-name="レイヤー 1"><path d="M32.05 0H1.86A1.87 1.87 0 0 0 0 1.87v30.19a1.87 1.87 0 0 0 1.87 1.86h16.25V20.8h-4.41v-5.13h4.41v-3.78c0-4.38 2.68-6.77 6.58-6.77a34.72 34.72 0 0 1 3.95.21v4.58H26c-2.13 0-2.54 1-2.54 2.49v3.27h5.07l-.67 5.13h-4.45v13.12h8.64a1.87 1.87 0 0 0 1.87-1.87V1.86A1.87 1.87 0 0 0 32.05 0z" fill="#4267b2"/><path d="M23.41 33.92V20.8h4.41l.67-5.13h-5.08V12.4c0-1.48.41-2.49 2.54-2.49h2.69V5.33a34.72 34.72 0 0 0-3.95-.21c-3.91 0-6.58 2.38-6.58 6.77v3.78H13.7v5.13h4.41v13.12z" fill="#fff"/></g></g></svg>